<?xml version="1.0" encoding="UTF-8" standalone="no"?>
<!-- Generator: Adobe Illustrator 16.0.0, SVG Export Plug-In . SVG Version: 6.00 Build 0)  -->

<svg
   xmlns:dc="http://purl.org/dc/elements/1.1/"
   xmlns:cc="http://creativecommons.org/ns#"
   xmlns:rdf="http://www.w3.org/1999/02/22-rdf-syntax-ns#"
   xmlns:svg="http://www.w3.org/2000/svg"
   xmlns="http://www.w3.org/2000/svg"
   xmlns:sodipodi="http://sodipodi.sourceforge.net/DTD/sodipodi-0.dtd"
   xmlns:inkscape="http://www.inkscape.org/namespaces/inkscape"
   version="1.1"
   id="Capa_1"
   x="0px"
   y="0px"
   width="98.148px"
   height="98.148px"
   viewBox="0 0 98.148 98.148"
   style="enable-background:new 0 0 98.148 98.148;"
   xml:space="preserve"
   inkscape:version="0.91 r13725"
   sodipodi:docname="arrow.svg"><metadata
     id="metadata41"><rdf:RDF><cc:Work
         rdf:about=""><dc:format>image/svg+xml</dc:format><dc:type
           rdf:resource="http://purl.org/dc/dcmitype/StillImage" /></cc:Work></rdf:RDF></metadata><defs
     id="defs39" /><sodipodi:namedview
     pagecolor="#ffffff"
     bordercolor="#666666"
     borderopacity="1"
     objecttolerance="10"
     gridtolerance="10"
     guidetolerance="10"
     inkscape:pageopacity="0"
     inkscape:pageshadow="2"
     inkscape:window-width="1452"
     inkscape:window-height="983"
     id="namedview37"
     showgrid="false"
     inkscape:zoom="2.4045319"
     inkscape:cx="-13.100263"
     inkscape:cy="49.074002"
     inkscape:window-x="0"
     inkscape:window-y="0"
     inkscape:window-maximized="0"
     inkscape:current-layer="Capa_1" /><g
     id="g3"
     style="fill:#007b21;fill-opacity:1"><path
       d="M33.458,97.562L80.531,50.49c0.75-0.75,0.75-2.078,0-2.828L33.456,0.586C33.081,0.211,32.572,0,32.042,0   c-0.53,0-1.039,0.211-1.414,0.586L17.641,13.573c-0.391,0.391-0.586,0.902-0.586,1.414c0,0.512,0.195,1.023,0.586,1.414   l32.674,32.674L17.642,81.75c-0.751,0.75-0.75,2.078,0,2.828l12.987,12.984C31.411,98.344,32.677,98.344,33.458,97.562z"
       id="path5"
       style="fill:#007b21;fill-opacity:1" /></g><g
     id="g7" /><g
     id="g9" /><g
     id="g11" /><g
     id="g13" /><g
     id="g15" /><g
     id="g17" /><g
     id="g19" /><g
     id="g21" /><g
     id="g23" /><g
     id="g25" /><g
     id="g27" /><g
     id="g29" /><g
     id="g31" /><g
     id="g33" /><g
     id="g35" /><path
     style="opacity:1;fill:#000000;fill-opacity:1;stroke:#000000;stroke-width:0.83176273;stroke-miterlimit:4;stroke-dasharray:none;stroke-opacity:1"
     d="m 24.386986,90.886539 c -3.943223,-3.948062 -7.169497,-7.456204 -7.169497,-7.795875 0,-0.339671 7.531785,-8.151092 16.737299,-17.358714 l 16.7373,-16.741125 -16.7373,-16.741128 C 24.749274,23.042078 17.217489,15.226642 17.217489,14.882063 c 0,-0.963035 13.791979,-14.54935827 14.769592,-14.54935827 0.540844,0 9.189432,8.36171657 24.901083,24.07511827 21.103633,21.105984 24.041481,24.196195 23.821434,25.056853 -0.303888,1.188576 -47.650244,48.60015 -48.533299,48.60015 -0.340899,0 -3.84609,-3.23023 -7.789313,-7.178287 z"
     id="path3349"
     inkscape:connector-curvature="0" /></svg>